<svg xmlns="http://www.w3.org/2000/svg" viewBox="0 0 512 512" role="img" aria-labelledby="title desc">
  <title id="title">py-spanorm sticker</title>
  <desc id="desc">OmicVerse repository hex sticker for py-spanorm.</desc>
  <defs>
    <linearGradient id="bg" x1="112" y1="90" x2="398" y2="430" gradientUnits="userSpaceOnUse">
      <stop offset="0" stop-color="#050706"/>
      <stop offset=".58" stop-color="#020403"/>
      <stop offset="1" stop-color="#000000"/>
    </linearGradient>
  </defs>
  <polygon points="256,34 450,146 450,368 256,480 62,368 62,146" fill="#000000" opacity=".34"/>
  <polygon points="256,22 458,139 458,373 256,490 54,373 54,139" fill="url(#bg)" stroke="#0B0F0A" stroke-width="19" stroke-linejoin="round"/>
  <polygon points="256,22 458,139 458,373 256,490 54,373 54,139" fill="none" stroke="#E8FFE0" stroke-width="12" stroke-linejoin="round"/>
  <g opacity=".22" stroke="#3FD36B" stroke-width="2.2">
    <path d="M112 166h288M100 222h312M100 278h312M112 334h288"/>
    <path d="M152 126v236M204 104v274M256 96v286M308 104v274M360 126v236"/>
  </g>
  <g id="motif">
    <path d="M144 188h224M144 256h224M144 324h224" stroke="#FFFFFF" stroke-width="7" stroke-linecap="round"/>
    <circle cx="212" cy="188" r="18" fill="#32D74B" stroke="#FFFFFF" stroke-width="5"/>
    <circle cx="306" cy="256" r="18" fill="#FFD60A" stroke="#FFFFFF" stroke-width="5"/>
    <circle cx="246" cy="324" r="18" fill="#00C7BE" stroke="#FFFFFF" stroke-width="5"/>
    <path d="M162 364c62-32 126-32 188 0" fill="none" stroke="#32D74B" stroke-width="7" stroke-linecap="round"/>
    <path d="M134 148h244" stroke="#3FD36B" stroke-width="4" opacity=".7"/>
  </g>
  <path id="label" d="M306.10,384.78 L309.97,391.47 L305.89,393.82 L295.74,376.22 L299.81,373.87 L300.89,375.74 Q301.09,374.14 301.81,373.02 Q302.52,371.90 303.86,371.13 Q306.21,369.77 308.80,370.77 Q311.40,371.76 313.10,374.71 Q314.80,377.66 314.37,380.41 Q313.94,383.15 311.58,384.51 Q310.25,385.28 308.92,385.34 Q307.59,385.40 306.10,384.78 Z M304.05,374.96 Q302.74,375.72 302.59,377.08 Q302.45,378.45 303.49,380.26 Q304.54,382.07 305.79,382.63 Q307.05,383.18 308.36,382.43 Q309.67,381.67 309.80,380.32 Q309.94,378.96 308.89,377.14 Q307.84,375.32 306.60,374.77 Q305.36,374.21 304.05,374.96 Z M310.75,367.56 L314.82,365.21 L323.24,371.88 L321.16,361.55 L325.23,359.19 L327.93,376.24 Q328.35,378.84 327.76,380.30 Q327.18,381.77 325.42,382.79 L323.06,384.15 L321.52,381.48 L322.79,380.74 Q323.82,380.14 324.10,379.54 Q324.39,378.94 324.16,377.93 L324.07,377.51 L310.75,367.56 Z M329.45,362.60 L336.59,358.48 L338.50,361.79 L331.36,365.91 L329.45,362.60 Z M347.47,346.88 L349.26,349.98 Q347.64,350.19 346.26,350.62 Q344.89,351.05 343.80,351.67 Q342.64,352.34 342.25,352.96 Q341.85,353.58 342.20,354.18 Q342.48,354.67 343.06,354.68 Q343.64,354.70 344.81,354.19 L345.59,353.88 Q348.95,352.46 350.56,352.75 Q352.16,353.04 353.29,354.99 Q354.46,357.02 353.55,358.92 Q352.64,360.81 349.66,362.53 Q348.40,363.26 346.93,363.84 Q345.47,364.41 343.82,364.84 L342.03,361.74 Q343.59,361.63 345.04,361.19 Q346.49,360.74 347.81,359.98 Q349.01,359.29 349.42,358.62 Q349.83,357.94 349.46,357.28 Q349.14,356.74 348.57,356.71 Q348.01,356.69 346.68,357.25 L345.91,357.58 Q342.99,358.81 341.36,358.51 Q339.74,358.22 338.66,356.34 Q337.49,354.32 338.31,352.54 Q339.14,350.76 342.00,349.11 Q343.13,348.45 344.47,347.91 Q345.81,347.36 347.47,346.88 Z M361.53,352.78 L365.39,359.47 L361.32,361.82 L351.16,344.23 L355.23,341.87 L356.31,343.74 Q356.51,342.14 357.23,341.02 Q357.95,339.90 359.28,339.13 Q361.64,337.77 364.23,338.77 Q366.82,339.77 368.53,342.71 Q370.23,345.66 369.79,348.41 Q369.36,351.15 367.01,352.51 Q365.67,353.28 364.35,353.35 Q363.02,353.41 361.53,352.78 Z M359.47,342.96 Q358.17,343.72 358.02,345.08 Q357.87,346.45 358.92,348.26 Q359.96,350.07 361.22,350.63 Q362.48,351.18 363.78,350.43 Q365.09,349.67 365.23,348.32 Q365.37,346.96 364.32,345.14 Q363.26,343.32 362.02,342.77 Q360.78,342.21 359.47,342.96 Z M377.60,338.31 Q376.33,339.04 375.93,339.85 Q375.54,340.65 376.03,341.49 Q376.47,342.26 377.25,342.41 Q378.02,342.54 378.94,342.01 Q380.09,341.35 380.40,340.07 Q380.71,338.79 379.99,337.55 L379.72,337.08 L377.60,338.31 Z M382.94,333.17 L387.14,340.45 L383.03,342.82 L381.94,340.93 Q381.79,342.56 381.07,343.69 Q380.36,344.81 378.89,345.65 Q376.91,346.80 375.01,346.36 Q373.10,345.91 372.04,344.07 Q370.74,341.83 371.68,339.89 Q372.62,337.95 375.92,336.05 L378.32,334.66 L378.14,334.34 Q377.58,333.37 376.56,333.37 Q375.53,333.35 373.92,334.29 Q372.61,335.04 371.63,335.96 Q370.66,336.87 369.99,337.95 L368.20,334.85 Q369.33,333.77 370.55,332.84 Q371.78,331.92 373.09,331.15 Q376.54,329.16 378.86,329.64 Q381.17,330.11 382.94,333.17 Z M399.26,323.10 L403.74,330.86 L399.65,333.23 L398.92,331.96 L396.22,327.29 Q395.26,325.64 394.83,325.05 Q394.40,324.47 394.04,324.28 Q393.57,324.02 393.03,324.03 Q392.50,324.05 391.97,324.35 Q390.70,325.08 390.54,326.49 Q390.38,327.90 391.38,329.64 L395.00,335.91 L390.93,338.26 L383.57,325.51 L387.64,323.16 L388.72,325.03 Q389.00,323.38 389.73,322.25 Q390.46,321.13 391.71,320.40 Q393.92,319.13 395.85,319.82 Q397.77,320.52 399.26,323.10 Z M407.73,315.04 Q406.38,315.82 406.23,317.20 Q406.08,318.59 407.14,320.42 Q408.20,322.25 409.47,322.82 Q410.74,323.38 412.10,322.60 Q413.43,321.83 413.57,320.45 Q413.72,319.06 412.66,317.23 Q411.60,315.40 410.33,314.84 Q409.07,314.27 407.73,315.04 Z M406.05,312.13 Q409.34,310.23 412.22,310.94 Q415.09,311.64 416.90,314.78 Q418.72,317.92 417.89,320.77 Q417.07,323.61 413.78,325.51 Q410.48,327.41 407.60,326.72 Q404.71,326.01 402.89,322.87 Q401.08,319.73 401.92,316.88 Q402.75,314.03 406.05,312.13 Z M427.65,304.69 Q426.97,304.75 426.37,304.94 Q425.77,305.12 425.24,305.43 Q423.67,306.34 423.40,307.84 Q423.13,309.33 424.22,311.21 L427.61,317.08 L423.54,319.43 L416.18,306.69 L420.25,304.34 L421.46,306.43 Q421.52,304.72 422.21,303.57 Q422.90,302.40 424.32,301.58 Q424.52,301.46 424.77,301.34 Q425.02,301.22 425.51,301.01 L427.65,304.69 Z M440.70,295.35 Q440.80,293.72 441.50,292.48 Q442.21,291.25 443.48,290.52 Q445.68,289.25 447.61,289.94 Q449.54,290.62 451.04,293.21 L455.52,300.97 L451.42,303.34 L447.58,296.69 Q447.51,296.53 447.42,296.38 Q447.34,296.21 447.16,295.92 Q446.38,294.56 445.63,294.18 Q444.88,293.80 443.99,294.31 Q442.83,294.98 442.75,296.31 Q442.67,297.62 443.69,299.45 L447.31,305.71 L443.21,308.08 L439.37,301.43 Q438.15,299.31 437.44,298.92 Q436.72,298.51 435.79,299.05 Q434.61,299.73 434.53,301.06 Q434.45,302.39 435.48,304.18 L439.10,310.45 L435.01,312.81 L427.65,300.07 L431.74,297.70 L432.82,299.57 Q432.95,298.05 433.61,296.94 Q434.27,295.84 435.44,295.16 Q436.76,294.40 438.14,294.45 Q439.52,294.50 440.70,295.35 Z" fill="#FFFFFF"/>
</svg>
